<svg width="256" height="256" viewBox="0 0 256 256" fill="none" xmlns="http://www.w3.org/2000/svg">
  <rect width="256" height="256" rx="72" fill="#071521"/>
  <rect x="18" y="18" width="220" height="220" rx="54" stroke="#123048" stroke-width="4"/>
  <path d="M82 63H126C166.869 63 193 88.9797 193 127.5C193 166.02 166.869 193 126 193H82V63Z" fill="#34C7E6"/>
  <path d="M108 89V167H124.5C152.019 167 169 151.057 169 127.5C169 103.943 152.019 89 124.5 89H108Z" fill="#071521"/>
  <path d="M154.782 77.3913C165.91 77.3913 175.405 80.9035 183.268 87.9279L170.782 102.493C165.698 98.0981 160.063 95.9009 153.877 95.9009C146.347 95.9009 142.582 98.3433 142.582 103.228C142.582 105.961 144.343 108.004 147.867 109.357C149.34 109.939 153.159 111.048 159.321 112.685C168.819 115.172 175.523 118.57 179.435 122.879C183.346 127.143 185.301 132.716 185.301 139.598C185.301 148.99 182.065 156.493 175.592 162.107C169.12 167.721 160.507 170.528 149.754 170.528C135.206 170.528 123.499 165.735 114.633 156.148L128.46 141.205C135.029 147.799 142.506 151.096 150.892 151.096C154.707 151.096 157.744 150.228 160.004 148.492C162.31 146.71 163.462 144.413 163.462 141.603C163.462 138.839 162.403 136.583 160.286 134.833C158.214 133.04 153.845 131.187 147.179 129.273C136.852 126.277 129.61 122.883 125.454 119.09C121.299 115.252 119.221 109.424 119.221 101.607C119.221 92.0276 122.699 84.4781 129.655 78.9584C136.611 73.4388 145.32 70.6789 155.782 70.6789L154.782 77.3913Z" fill="#FF8A3D"/>
</svg>
